# xmcd
#
# Track frame offsets:
#	150
#	14038
#	28918
#	46892
#	62844
#	77521
#	92635
#	110061
#	127808
#	143765
#	164212
#	180485
#	195314
#	211126
#
# Disc length: 3223 seconds
#
# Revision: 0
# Processed by: cddbd v1.5.2PL0 Copyright (c) Steve Scherf et al.
# Submitted via: EasyCDDAExtractor 12.0.1.1
#
DISCID=be0c950e
DTITLE=Boulder Acoustic Society - Punchline
DYEAR=2009
DGENRE=Blues
TTITLE0=We Tried
TTITLE1=Until Then
TTITLE2=Slip Baby Slip
TTITLE3=Give It Away
TTITLE4=I Feel Like I've Seen You Before
TTITLE5=A Life For Two
TTITLE6=Take My Hand
TTITLE7=The Addressee
TTITLE8=Frog Pajama Waltz
TTITLE9=So Confused
TTITLE10=Sunset
TTITLE11=Time Travel
TTITLE12=Burn The Pity Of Our Past
TTITLE13=Punchline
EXTD=
EXTT0=
EXTT1=
EXTT2=
EXTT3=
EXTT4=
EXTT5=
EXTT6=
EXTT7=
EXTT8=
EXTT9=
EXTT10=
EXTT11=
EXTT12=
EXTT13=
PLAYORDER=
